<svg id="Layer_1" data-name="Layer 1" xmlns="http://www.w3.org/2000/svg" viewBox="0 0 613.53 180.94"><defs><style>.cls-1{fill:#001547;}.cls-2{fill:#0036d0;}</style></defs><title>fergus-horizontal</title><path class="cls-1" d="M229.13,69.66l.06,25.67,44.23-.11,0,15.51-44.23.12.11,41.9-17.4.05-.25-98.61L275.2,54l0,15.52Z"/><path class="cls-1" d="M347.48,136.79c-3,4.79-12.28,17.43-32.44,17.48-20.44.06-34.4-14.41-34.46-36.74-.05-21.31,14.56-35.56,33.84-35.61,22-.06,32.67,15.14,32.72,36.31,0,1.16-.14,3-.13,4.21l-50.32.12c1.18,9.43,7,17.53,19.18,17.5,12.48,0,18-8.46,20.13-11.94Zm-50.39-26.55,33.64-.09c-.45-9-7-15.06-16.28-15S297.51,102,297.09,110.24Z"/><path class="cls-1" d="M374.31,83.36l0,10.15c1.3-3.48,6.79-11.91,20.13-11.94a18.66,18.66,0,0,1,2.61.14l0,16.82c-1.59-.14-3.19-.29-4.64-.28-8.84,0-13.77,3.22-16.21,9.47-1.3,3.48-1.87,7.54-1.86,13.63l.08,31-16.53,0-.17-69Z"/><path class="cls-1" d="M419.73,155.6c.74,6.38,3.66,12.46,15.55,12.43,12.47,0,17-5.12,16.92-18.17l0-6.23H452c-2.31,3.19-8.1,8.86-20.28,8.89-18.71,0-30.49-13.55-30.54-34.57-.06-21.75,11.22-36.43,30.21-36.48,9.57,0,16.83,4.31,20.62,9.23l0-7.54,16.53,0,.17,65.1c0,7.4-.55,12.19-2.14,16.54-4.32,11.61-14.89,16.13-31.86,16.18-20.73.05-31.05-9.2-31.67-24Zm15.51-59.93c-11.17,0-17.53,7.73-17.49,21.65s6.43,21.3,17.6,21.27c11,0,17.52-8,17.49-21.36S446.26,95.64,435.24,95.67Z"/><path class="cls-1" d="M482.33,83.08l16.53,0,.1,36.69c0,4.93.17,9.71,1.77,13.33s4.8,6.08,10.6,6.07c10.3,0,14.77-8,14.74-19.18L526,83l16.53,0,.17,69-16.53,0,0-8.84c-3.32,5.81-10.7,10.61-20.56,10.64-7,0-12.91-2.15-17-6.63-4.36-4.92-6.11-9.7-6.15-24.93Z"/><path class="cls-1" d="M601.57,102.35a27.59,27.59,0,0,0-19.45-7.78c-6.52,0-11.3,2.35-11.29,6.85,0,4.93,4.8,5.93,14.52,7.93l8.27,1.87c10.44,2.44,19.88,6.33,19.91,18.94,0,15.81-14.29,23.39-30.1,23.43-16.53,0-27.71-8.05-31.94-14l11.15-9.89c3.92,5.21,10.61,10.27,21.19,10.24,8.27,0,13-2.93,13-7.86,0-4.78-3.93-5.64-10.6-7.08L576,122.86c-12-2.58-21.48-7.63-21.51-20.24,0-15.08,14.59-21.5,27.78-21.53,13.78,0,24.38,6,28.89,10.94Z"/><path class="cls-2" d="M125.58,3a4,4,0,0,0-4.9-2.83L61.77,15.93,43.54,5.41a3,3,0,0,0-4.39,3.38L53.6,62.72a12,12,0,0,1-3.11,11.59L16.15,108.65,4.51,101.93a3,3,0,0,0-4.4,3.37L4.7,122.45l3.24,12.08.08,0a24.43,24.43,0,0,0,6.07,10.9,24.93,24.93,0,0,0,18,7.65H67.45L61.26,130l9.66-2.59,5.29,19.77a8,8,0,0,0,7.73,5.93H98.51l-8.27-30.87,9.66-2.59,7.37,27.53a8,8,0,0,0,7.73,5.93h14.57L103.43,55.5a4,4,0,0,1,2.82-4.9l5.8-1.55a25,25,0,0,0,17.68-30.62ZM77.12,34.6a6,6,0,1,1,4.24-7.35A6,6,0,0,1,77.12,34.6Z"/></svg>